<svg width="200" height="200" xmlns="http://www.w3.org/2000/svg">
    <path
        d="M 14.736 152.25 A 100 100 0 0 1 2.763 123.345 Q 51.382 100 2.763 76.655 A 100 100 0 0 1 14.736 47.75 Q 65.622 65.622 47.75 14.736 A 100 100 0 0 1 76.655 2.763 Q 100 51.382 123.345 2.763 A 100 100 0 0 1 152.25 14.736 Q 134.378 65.622 185.264 47.75 A 100 100 0 0 1 197.237 76.655 Q 148.618 100 197.237 123.345 A 100 100 0 0 1 185.264 152.25 C 168.302 146.293 157.07 146.065 151.568 151.568 L 128.284 128.284 A 40 40 0 1 0 71.716 128.284 L 48.432 151.568 C 42.93 146.065 31.698 146.293 14.736 152.25 Z"
        fill="lightblue"
        stroke="black"
        stroke-width="5"
    />
</svg>
